<?xml version="1.0"?>
<svg xmlns="http://www.w3.org/2000/svg" id="Capa_1" enable-background="new 0 0 512 512" height="512px" viewBox="0 0 512 512" width="512px" class=""><g transform="matrix(1 0 0 1 0 0)"><g><path d="m241 89.94h30v140.39h-30z" fill="#3c4a83" data-original="#3C4A83" class="" style="fill:#EB7D16" data-old_color="#3c4a83"/><path d="m256 89.94h15v140.39h-15z" fill="#2a386b" data-original="#2A386B" 
class="" style="fill:#EB7D16" data-old_color="#2a386b"/><path d="m69.857 430.304h-30v-157.169h168.582v30h-138.582z" fill="#3c4a83" data-original="#3C4A83" class="" style="fill:#EB7D16" data-old_color="#3c4a83"/><path d="m473.501 430.304h-30v-127.169h-138.583v-30h168.583z" fill="#2a386b" 
data-original="#2A386B" class="" style="fill:#EB7D16" data-old_color="#2a386b"/><path d="m0 402.286h109.714v109.714h-109.714z" fill="#60e2f4" data-original="#60E2F4" class="" style="fill:#292980" data-old_color="#60e2f4"/><path d="m146.29 0h219.42v109.71h-219.42z" fill="#60e2f4" data-original="#60E2F4" class="" style="fill:#292980" data-old_color="#60e2f4"/><path d="m256 0h109.71v109.71h-109.71z" fill="#29c5ec" data-original="#29C5EC" 
style="fill:#29C5EC" class=""/><circle cx="457.143" cy="457.143" fill="#29c5ec" r="54.857" data-original="#29C5EC" style="fill:#29C5EC" class=""/><path d="m201.143 233.273h109.715v109.715h-109.715z" fill="#ff641a" transform="matrix(.707 -.707 .707 .707 -128.758 265.411)" data-original="#FF641A" class="active-path" style="fill:#FFCE00" data-old_color="#ff641a"/><path d="m333.58 288.13-77.58 77.58v-155.16z" fill="#ea0016" data-original="#EA0016" class="" style="fill:#EA0016" 
data-old_color="#ea0016"/></g></g> </svg>
