<svg id="Capa_1" enable-background="new 0 0 512 512" height="512" viewBox="0 0 512 512" width="512" xmlns="http://www.w3.org/2000/svg"><g><path d="m211 0c-5.153-.009-9.983.914-15 1.318-82.938 6.686-146.548 67.922-161.323 141.856-5.684 28.462-4.834 56.602 2.52 83.76l-37.197 62.256 61 43.462v87.348h60v92h75 135v-63.216c0-61.45 14.985-126.533 45.806-198.955 9.419-22.134 14.194-45.63 14.194-69.829 0-98.712-79.601-179.811-180-180z" fill="#66b3ff"/><path d="m331 448.784c0-61.45 14.985-126.533 45.806-198.955 9.419-22.134 14.194-45.63 14.194-69.829 0-98.712-79.601-179.811-180-180-5.153-.009-9.983.914-15 1.318v510.682h135z" fill="#4d88ff"/><path d="m256 180h181v30h-181z" fill="#cce6ff"/><path d="m467 240c-24.814 0-45-20.186-45-45s20.186-45 45-45 45 20.186 45 45-20.186 45-45 45z" fill="#4d88ff"/><path d="m435.184 304.395-34.395-34.395h-204.789v-30h217.211l43.184 43.184z" fill="#cce6ff"/><path d="m467 360c-24.814 0-45-20.186-45-45s20.186-45 45-45 45 20.186 45 45-20.186 45-45 45z" fill="#4d88ff"/><path d="m413.211 150h-217.211v-30h204.789l34.395-34.394 21.211 21.21z" fill="#cce6ff"/><path d="m467 120c-24.814 0-45-20.186-45-45s20.186-45 45-45 45 20.186 45 45-20.186 45-45 45z" fill="#4d88ff"/><circle cx="196" cy="195" fill="#e6f7ff" r="75"/><path d="m271 195c0-41.353-33.647-75-75-75v150c41.353 0 75-33.647 75-75z" fill="#cce6ff"/><circle cx="196" cy="195" fill="#66b3ff" r="45"/><path d="m241 195c0-24.813-20.187-45-45-45v90c24.814 0 45-20.187 45-45z" fill="#4d88ff"/><path d="m196 180h-15v30h15 15v-30z" fill="#e6f7ff"/><path d="m196 180h15v30h-15z" fill="#cce6ff"/></g></svg>